# File created by Blade
# Date/Time:  Wed Sep 24 19:53:44 2014
# Frame Rate: 120.000 fps
#------------------------------------------------------
:FULLY-SPECIFIED
:DEGREES
1391
root -6.285116 32.836966 -4.124434 8.983449 3.687055 -0.450375
Spine -15.898870 -11.467838 2.818093
Head -6.573588 4.363987 19.564442
LeftShoulder 2.651491 -0.438295 25.410230
LeftArm 93.882547 -41.570769 -124.978625
LeftForeArm -46.418235 -0.000000 105.179565
LeftHand -12.520563 -0.000000 5.649764
LeftHandThumb1 -26.253704 0.000000 33.147579
RightShoulder -14.988537 11.889636 -14.798532
RightArm -10.455850 -20.434612 81.839398
RightForeArm -19.224899 -0.000000 16.923890
RightHand -6.178173 0.000000 11.104635
RightHandThumb1 -24.326973 -0.000000 -32.862282
LeftUpLeg -2.586620 6.961561 4.482311
LeftLeg -2.325426 -0.000000 0.000000
LeftFoot -8.928855 3.890588 -18.836536
LeftToeBase 11.401728 -0.000000 -0.000000
RightUpLeg -4.076124 -7.910889 -3.000013
RightLeg 2.009141 -0.000000 -0.000000
RightFoot -7.893441 -6.270976 -13.410149
RightToeBase -0.394154 -0.000000 0.000000
1392
root -6.286299 32.837102 -4.121640 8.972755 3.835769 -0.444815
Spine -15.838690 -11.305765 2.847953
Head -6.632702 4.447069 19.420386
LeftShoulder 2.525811 -0.198198 25.451368
LeftArm 93.948794 -42.104274 -124.259185
LeftForeArm -45.981057 0.000000 105.058384
LeftHand -12.516674 0.000000 5.758946
LeftHandThumb1 -26.253704 0.000000 33.147579
RightShoulder -14.978178 11.836068 -14.835319
RightArm -10.524818 -20.356212 81.856859
RightForeArm -19.240141 -0.000000 16.960209
RightHand -6.219076 0.000000 11.089151
RightHandThumb1 -24.326973 -0.000000 -32.862282
LeftUpLeg -2.601835 6.909281 4.493701
LeftLeg -2.321304 -0.000000 0.000000
LeftFoot -8.893188 3.815162 -18.820055
LeftToeBase 11.395744 -0.000000 -0.000000
RightUpLeg -4.027738 -7.968600 -2.990577
RightLeg 1.992952 -0.000000 -0.000000
RightFoot -7.875440 -6.347827 -13.373772
RightToeBase -0.401891 -0.000000 0.000000
1393
root -6.286224 32.836679 -4.121765 8.970742 3.973765 -0.422362
Spine -15.780280 -11.118063 2.880404
Head -6.701975 4.546507 19.184001
LeftShoulder 2.501434 0.094931 25.557437
LeftArm 94.113795 -42.861015 -123.658623
LeftForeArm -45.406780 -0.000000 104.992474
LeftHand -12.603515 -0.000000 5.801985
LeftHandThumb1 -26.253704 0.000000 33.147579
RightShoulder -14.920739 11.680148 -14.857694
RightArm -10.518224 -20.179415 81.845317
RightForeArm -19.340113 -0.000000 17.043740
RightHand -6.249738 -0.000000 11.049362
RightHandThumb1 -24.326973 -0.000000 -32.862282
LeftUpLeg -2.629190 6.825481 4.486223
LeftLeg -2.308321 -0.000000 0.000000
LeftFoot -8.861446 3.777286 -18.782004
LeftToeBase 11.341022 -0.000000 -0.000000
RightUpLeg -4.001023 -8.000262 -3.002651
RightLeg 1.993597 -0.000000 -0.000000
RightFoot -7.877816 -6.437663 -13.365066
RightToeBase -0.382548 -0.000000 0.000000
1394
root -6.287092 32.835912 -4.116617 8.964256 4.129145 -0.407210
Spine -15.736472 -10.962957 2.921606
Head -6.717151 4.615947 18.977600
LeftShoulder 2.478455 -0.212755 25.752006
LeftArm 93.460825 -44.125412 -122.590899
LeftForeArm -44.855314 0.000000 104.984893
LeftHand -12.676890 0.000000 5.958345
LeftHandThumb1 -26.253704 0.000000 33.147579
RightShoulder -14.918351 11.670545 -14.928456
RightArm -10.609876 -20.150488 81.894323
RightForeArm -19.349924 -0.000000 17.063382
RightHand -6.274325 -0.000000 11.025021
RightHandThumb1 -24.326973 -0.000000 -32.862282
LeftUpLeg -2.637590 6.740466 4.491411
LeftLeg -2.316133 -0.000000 0.000000
LeftFoot -8.832861 3.719717 -18.770593
LeftToeBase 11.318518 -0.000000 -0.000000
RightUpLeg -3.948913 -8.073501 -3.002540
RightLeg 1.976335 -0.000000 -0.000000
RightFoot -7.886906 -6.527550 -13.346867
RightToeBase -0.338259 -0.000000 0.000000
1395
root -6.286581 32.835809 -4.117031 8.976144 4.235049 -0.399359
Spine -15.677508 -10.749985 2.978019
Head -6.771198 4.638681 18.762619
LeftShoulder 2.336139 -0.020737 25.827629
LeftArm 93.362835 -44.994007 -121.687022
LeftForeArm -44.141917 -0.000000 104.911554
LeftHand -12.892404 -0.000000 6.345400
LeftHandThumb1 -26.253704 0.000000 33.147579
RightShoulder -14.936256 11.726768 -15.020104
RightArm -10.753982 -20.109279 81.959370
RightForeArm -19.374388 -0.000000 17.110033
RightHand -6.270875 0.000000 10.938930
RightHandThumb1 -24.326973 -0.000000 -32.862282
LeftUpLeg -2.675164 6.695821 4.489848
LeftLeg -2.306171 -0.000000 0.000000
LeftFoot -8.816446 3.679703 -18.757268
LeftToeBase 11.362257 -0.000000 -0.000000
RightUpLeg -3.948423 -8.073986 -3.002101
RightLeg 1.990141 -0.000000 -0.000000
RightFoot -7.886633 -6.619378 -13.313691
RightToeBase -0.346950 -0.000000 0.000000
1396
root -6.286703 32.834791 -4.113842 8.990373 4.343116 -0.394374
Spine -15.654931 -10.505384 3.057014
Head -6.845381 4.834380 18.457495
LeftShoulder 2.394659 -0.091279 25.991727
LeftArm 92.942753 -46.375433 -120.678331
LeftForeArm -43.705056 -0.000000 104.878326
LeftHand -12.803325 -0.000000 6.306268
LeftHandThumb1 -26.253704 0.000000 33.147579
RightShoulder -14.983090 11.684293 -15.141784
RightArm -10.807119 -20.087442 82.023869
RightForeArm -19.309952 -0.000000 17.132724
RightHand -6.228770 -0.000000 10.872899
RightHandThumb1 -24.326973 -0.000000 -32.862282
LeftUpLeg -2.703554 6.657622 4.494126
LeftLeg -2.307437 -0.000000 0.000000
LeftFoot -8.808542 3.619640 -18.754634
LeftToeBase 11.372050 -0.000000 -0.000000
RightUpLeg -3.941871 -8.103197 -2.994644
RightLeg 1.998005 -0.000000 -0.000000
RightFoot -7.892182 -6.698308 -13.310754
RightToeBase -0.298282 -0.000000 0.000000
1397
root -6.288000 32.834540 -4.108598 8.987498 4.464833 -0.387720
Spine -15.611374 -10.316814 3.105877
Head -6.914223 5.052852 18.263144
LeftShoulder 2.185001 0.354755 25.991708
LeftArm 92.950743 -47.228561 -119.568870
LeftForeArm -43.117881 -0.000000 104.668598
LeftHand -12.748494 -0.000000 6.300327
LeftHandThumb1 -26.253704 0.000000 33.147579
RightShoulder -14.951006 11.692866 -15.176489
RightArm -10.927733 -19.975334 82.040291
RightForeArm -19.394195 -0.000000 17.233595
RightHand -6.296643 0.000000 10.863244
RightHandThumb1 -24.326973 -0.000000 -32.862282
LeftUpLeg -2.709200 6.582868 4.505715
LeftLeg -2.313678 -0.000000 0.000000
LeftFoot -8.783571 3.576594 -18.755711
LeftToeBase 11.358042 -0.000000 -0.000000
RightUpLeg -3.906013 -8.198225 -2.990574
RightLeg 1.990570 -0.000000 -0.000000
RightFoot -7.909186 -6.685174 -13.255261
RightToeBase -0.297470 -0.000000 0.000000
1398
root -6.287592 32.833909 -4.104513 9.002048 4.561146 -0.370058
Spine -15.588416 -10.116378 3.162426
Head -6.956518 5.245176 18.042899
LeftShoulder 1.914058 1.123146 25.917162
LeftArm 93.322766 -47.966907 -118.584621
LeftForeArm -42.427290 -0.000000 104.417181
LeftHand -13.029067 -0.000000 6.179182
LeftHandThumb1 -26.253704 0.000000 33.147579
RightShoulder -14.976492 11.655146 -15.243776
RightArm -10.930004 -19.954564 82.064229
RightForeArm -19.406054 -0.000000 17.248083
RightHand -6.299089 0.000000 10.955252
RightHandThumb1 -24.326973 -0.000000 -32.862282
LeftUpLeg -2.735839 6.525833 4.494666
LeftLeg -2.306855 -0.000000 0.000000
LeftFoot -8.789480 3.563849 -18.752820
LeftToeBase 11.426018 -0.000000 -0.000000
RightUpLeg -3.900339 -8.296610 -2.997106
RightLeg 2.000066 -0.000000 -0.000000
RightFoot -7.933604 -6.669222 -13.232212
RightToeBase -0.383448 -0.000000 0.000000
1399
root -6.289754 32.834099 -4.098183 9.011797 4.658492 -0.361783
Spine -15.559126 -9.879991 3.199558
Head -6.965479 5.390189 17.846103
LeftShoulder 1.778141 1.379473 25.965723
LeftArm 92.937465 -49.219964 -117.149678
LeftForeArm -42.000384 0.000000 104.254684
LeftHand -13.091336 -0.000000 6.070309
LeftHandThumb1 -26.253704 0.000000 33.147579
RightShoulder -15.018724 11.594357 -15.260688
RightArm -10.956743 -19.970811 82.062333
RightForeArm -19.389664 -0.000000 17.339703
RightHand -6.314010 0.000000 10.845366
RightHandThumb1 -24.326973 -0.000000 -32.862282
LeftUpLeg -2.749044 6.470703 4.503150
LeftLeg -2.308789 -0.000000 0.000000
LeftFoot -8.757323 3.530658 -18.737283
LeftToeBase 11.397015 -0.000000 -0.000000
RightUpLeg -3.873047 -8.479068 -2.981901
RightLeg 1.967024 -0.000000 -0.000000
RightFoot -7.933143 -6.600565 -13.288109
RightToeBase -0.388612 -0.000000 0.000000
1400
root -6.290766 32.833899 -4.092073 9.024544 4.734640 -0.359067
Spine -15.526954 -9.636466 3.264870
Head -7.001924 5.526981 17.598538
LeftShoulder 1.609452 1.559067 26.010829
LeftArm 92.253652 -50.641046 -115.416849
LeftForeArm -41.720113 -0.000000 104.107584
LeftHand -13.224987 -0.000000 6.195975
LeftHandThumb1 -26.253704 0.000000 33.147579
RightShoulder -15.048005 11.573251 -15.311391
RightArm -10.985947 -19.929441 82.065506
RightForeArm -19.357999 -0.000000 17.417336
RightHand -6.318723 -0.000000 10.904586
RightHandThumb1 -24.326973 -0.000000 -32.862282
LeftUpLeg -2.757699 6.430112 4.509074
LeftLeg -2.327462 -0.000000 0.000000
LeftFoot -8.738170 3.519790 -18.743135
LeftToeBase 11.358142 -0.000000 -0.000000
RightUpLeg -3.860790 -8.550792 -2.972924
RightLeg 1.964744 -0.000000 -0.000000
RightFoot -7.960950 -6.587935 -13.247346
RightToeBase -0.349136 -0.000000 0.000000
1401
root -6.291069 32.833682 -4.084377 9.041686 4.805929 -0.355100
Spine -15.507120 -9.382983 3.326448
Head -7.033782 5.659121 17.380919
LeftShoulder 1.384984 1.936632 26.067378
LeftArm 91.548674 -52.038156 -113.601703
LeftForeArm -41.546240 -0.000000 103.924572
LeftHand -13.296293 0.000000 6.318779
LeftHandThumb1 -26.253704 0.000000 33.147579
RightShoulder -15.088211 11.548929 -15.366595
RightArm -11.034024 -19.793256 82.071087
RightForeArm -19.469700 -0.000000 17.509354
RightHand -6.331867 -0.000000 10.883605
RightHandThumb1 -24.326973 -0.000000 -32.862282
LeftUpLeg -2.770940 6.382942 4.509866
LeftLeg -2.330775 -0.000000 0.000000
LeftFoot -8.750718 3.521145 -18.752631
LeftToeBase 11.379120 -0.000000 -0.000000
RightUpLeg -3.847091 -8.615020 -2.965753
RightLeg 1.952986 -0.000000 -0.000000
RightFoot -7.961694 -6.595527 -13.257509
RightToeBase -0.372835 -0.000000 0.000000
